%TF.GenerationSoftware,KiCad,Pcbnew,(6.0.2)*%
%TF.CreationDate,2022-03-14T14:46:00+01:00*%
%TF.ProjectId,Wordclock,576f7264-636c-46f6-936b-2e6b69636164,rev?*%
%TF.SameCoordinates,Original*%
%TF.FileFunction,Soldermask,Top*%
%TF.FilePolarity,Negative*%
%FSLAX46Y46*%
G04 Gerber Fmt 4.6, Leading zero omitted, Abs format (unit mm)*
G04 Created by KiCad (PCBNEW (6.0.2)) date 2022-03-14 14:46:00*
%MOMM*%
%LPD*%
G01*
G04 APERTURE LIST*
G04 Aperture macros list*
%AMRoundRect*
0 Rectangle with rounded corners*
0 $1 Rounding radius*
0 $2 $3 $4 $5 $6 $7 $8 $9 X,Y pos of 4 corners*
0 Add a 4 corners polygon primitive as box body*
4,1,4,$2,$3,$4,$5,$6,$7,$8,$9,$2,$3,0*
0 Add four circle primitives for the rounded corners*
1,1,$1+$1,$2,$3*
1,1,$1+$1,$4,$5*
1,1,$1+$1,$6,$7*
1,1,$1+$1,$8,$9*
0 Add four rect primitives between the rounded corners*
20,1,$1+$1,$2,$3,$4,$5,0*
20,1,$1+$1,$4,$5,$6,$7,0*
20,1,$1+$1,$6,$7,$8,$9,0*
20,1,$1+$1,$8,$9,$2,$3,0*%
G04 Aperture macros list end*
%ADD10R,3.000000X3.000000*%
%ADD11C,3.000000*%
%ADD12RoundRect,0.250000X-0.337500X-0.475000X0.337500X-0.475000X0.337500X0.475000X-0.337500X0.475000X0*%
%ADD13R,1.500000X1.000000*%
%ADD14C,0.800000*%
%ADD15C,6.400000*%
%ADD16R,3.500000X3.500000*%
%ADD17RoundRect,0.750000X1.000000X-0.750000X1.000000X0.750000X-1.000000X0.750000X-1.000000X-0.750000X0*%
%ADD18RoundRect,0.875000X0.875000X-0.875000X0.875000X0.875000X-0.875000X0.875000X-0.875000X-0.875000X0*%
%ADD19R,1.700000X1.700000*%
%ADD20O,1.700000X1.700000*%
G04 APERTURE END LIST*
D10*
%TO.C,J4*%
X512000000Y-21500000D03*
D11*
X512000000Y-26580000D03*
%TD*%
D12*
%TO.C,C110*%
X808962500Y-317500000D03*
X811037500Y-317500000D03*
%TD*%
%TO.C,C10*%
X780962500Y-38500000D03*
X783037500Y-38500000D03*
%TD*%
%TO.C,C24*%
X556962500Y-100500000D03*
X559037500Y-100500000D03*
%TD*%
D13*
%TO.C,D2*%
X558450000Y-32600000D03*
X558450000Y-29400000D03*
X553550000Y-29400000D03*
X553550000Y-32600000D03*
%TD*%
D12*
%TO.C,C6*%
X668925000Y-38500000D03*
X671000000Y-38500000D03*
%TD*%
%TO.C,C31*%
X752962500Y-100500000D03*
X755037500Y-100500000D03*
%TD*%
%TO.C,C40*%
X696962500Y-131500000D03*
X699037500Y-131500000D03*
%TD*%
%TO.C,C90*%
X556962500Y-286500000D03*
X559037500Y-286500000D03*
%TD*%
%TO.C,C70*%
X612925000Y-224500000D03*
X615000000Y-224500000D03*
%TD*%
%TO.C,C62*%
X696962500Y-193500000D03*
X699037500Y-193500000D03*
%TD*%
%TO.C,C28*%
X668962500Y-100500000D03*
X671037500Y-100500000D03*
%TD*%
D13*
%TO.C,D19*%
X726450000Y-63600000D03*
X726450000Y-60400000D03*
X721550000Y-60400000D03*
X721550000Y-63600000D03*
%TD*%
%TO.C,D62*%
X698450000Y-187600000D03*
X698450000Y-184400000D03*
X693550000Y-184400000D03*
X693550000Y-187600000D03*
%TD*%
%TO.C,D12*%
X530450000Y-63600000D03*
X530450000Y-60400000D03*
X525550000Y-60400000D03*
X525550000Y-63600000D03*
%TD*%
%TO.C,D93*%
X642450000Y-280600000D03*
X642450000Y-277400000D03*
X637550000Y-277400000D03*
X637550000Y-280600000D03*
%TD*%
D12*
%TO.C,C34*%
X528962500Y-131500000D03*
X531037500Y-131500000D03*
%TD*%
%TO.C,C39*%
X668962500Y-131500000D03*
X671037500Y-131500000D03*
%TD*%
D13*
%TO.C,D7*%
X698450000Y-32600000D03*
X698450000Y-29400000D03*
X693550000Y-29400000D03*
X693550000Y-32600000D03*
%TD*%
%TO.C,D98*%
X782450000Y-280600000D03*
X782450000Y-277400000D03*
X777550000Y-277400000D03*
X777550000Y-280600000D03*
%TD*%
%TO.C,D39*%
X670450000Y-125600000D03*
X670450000Y-122400000D03*
X665550000Y-122400000D03*
X665550000Y-125600000D03*
%TD*%
D12*
%TO.C,C79*%
X556962500Y-255500000D03*
X559037500Y-255500000D03*
%TD*%
D13*
%TO.C,D26*%
X614450000Y-94600000D03*
X614450000Y-91400000D03*
X609550000Y-91400000D03*
X609550000Y-94600000D03*
%TD*%
D12*
%TO.C,C60*%
X640925000Y-193500000D03*
X643000000Y-193500000D03*
%TD*%
%TO.C,C76*%
X780925000Y-224500000D03*
X783000000Y-224500000D03*
%TD*%
%TO.C,C17*%
X668962500Y-69500000D03*
X671037500Y-69500000D03*
%TD*%
D13*
%TO.C,D77*%
X810450000Y-218600000D03*
X810450000Y-215400000D03*
X805550000Y-215400000D03*
X805550000Y-218600000D03*
%TD*%
%TO.C,D42*%
X754450000Y-125600000D03*
X754450000Y-122400000D03*
X749550000Y-122400000D03*
X749550000Y-125600000D03*
%TD*%
D12*
%TO.C,C77*%
X809000000Y-224500000D03*
X811075000Y-224500000D03*
%TD*%
D13*
%TO.C,D46*%
X558450000Y-156600000D03*
X558450000Y-153400000D03*
X553550000Y-153400000D03*
X553550000Y-156600000D03*
%TD*%
%TO.C,D27*%
X642450000Y-94600000D03*
X642450000Y-91400000D03*
X637550000Y-91400000D03*
X637550000Y-94600000D03*
%TD*%
%TO.C,D43*%
X782450000Y-125600000D03*
X782450000Y-122400000D03*
X777550000Y-122400000D03*
X777550000Y-125600000D03*
%TD*%
D14*
%TO.C,Hole5*%
X666302944Y-172197056D03*
X668000000Y-172900000D03*
X668000000Y-168100000D03*
X665600000Y-170500000D03*
X670400000Y-170500000D03*
D15*
X668000000Y-170500000D03*
D14*
X666302944Y-168802944D03*
X669697056Y-172197056D03*
X669697056Y-168802944D03*
%TD*%
D13*
%TO.C,D86*%
X754450000Y-249600000D03*
X754450000Y-246400000D03*
X749550000Y-246400000D03*
X749550000Y-249600000D03*
%TD*%
D14*
%TO.C,Hole3*%
X509600000Y-326500000D03*
X510302944Y-328197056D03*
X512000000Y-324100000D03*
X514400000Y-326500000D03*
X512000000Y-328900000D03*
X513697056Y-328197056D03*
X510302944Y-324802944D03*
X513697056Y-324802944D03*
D15*
X512000000Y-326500000D03*
%TD*%
D12*
%TO.C,C21*%
X781000000Y-69500000D03*
X783075000Y-69500000D03*
%TD*%
D13*
%TO.C,D75*%
X754450000Y-218600000D03*
X754450000Y-215400000D03*
X749550000Y-215400000D03*
X749550000Y-218600000D03*
%TD*%
D12*
%TO.C,C53*%
X752962500Y-162500000D03*
X755037500Y-162500000D03*
%TD*%
%TO.C,C26*%
X613000000Y-100500000D03*
X615075000Y-100500000D03*
%TD*%
D13*
%TO.C,D34*%
X530450000Y-125600000D03*
X530450000Y-122400000D03*
X525550000Y-122400000D03*
X525550000Y-125600000D03*
%TD*%
%TO.C,D38*%
X642450000Y-125600000D03*
X642450000Y-122400000D03*
X637550000Y-122400000D03*
X637550000Y-125600000D03*
%TD*%
%TO.C,D25*%
X586450000Y-94600000D03*
X586450000Y-91400000D03*
X581550000Y-91400000D03*
X581550000Y-94600000D03*
%TD*%
%TO.C,D69*%
X586450000Y-218600000D03*
X586450000Y-215400000D03*
X581550000Y-215400000D03*
X581550000Y-218600000D03*
%TD*%
%TO.C,D55*%
X810450000Y-156600000D03*
X810450000Y-153400000D03*
X805550000Y-153400000D03*
X805550000Y-156600000D03*
%TD*%
D12*
%TO.C,C63*%
X725000000Y-193500000D03*
X727075000Y-193500000D03*
%TD*%
%TO.C,C29*%
X696962500Y-100500000D03*
X699037500Y-100500000D03*
%TD*%
%TO.C,C69*%
X584962500Y-224500000D03*
X587037500Y-224500000D03*
%TD*%
D13*
%TO.C,D15*%
X614450000Y-63600000D03*
X614450000Y-60400000D03*
X609550000Y-60400000D03*
X609550000Y-63600000D03*
%TD*%
D12*
%TO.C,C37*%
X612925000Y-131500000D03*
X615000000Y-131500000D03*
%TD*%
%TO.C,C81*%
X612962500Y-255500000D03*
X615037500Y-255500000D03*
%TD*%
D13*
%TO.C,D101*%
X558450000Y-311600000D03*
X558450000Y-308400000D03*
X553550000Y-308400000D03*
X553550000Y-311600000D03*
%TD*%
%TO.C,D29*%
X698450000Y-94600000D03*
X698450000Y-91400000D03*
X693550000Y-91400000D03*
X693550000Y-94600000D03*
%TD*%
D12*
%TO.C,C100*%
X528962500Y-317500000D03*
X531037500Y-317500000D03*
%TD*%
%TO.C,C41*%
X724925000Y-131500000D03*
X727000000Y-131500000D03*
%TD*%
D13*
%TO.C,D24*%
X558450000Y-94600000D03*
X558450000Y-91400000D03*
X553550000Y-91400000D03*
X553550000Y-94600000D03*
%TD*%
D12*
%TO.C,C7*%
X696962500Y-38500000D03*
X699037500Y-38500000D03*
%TD*%
D13*
%TO.C,D68*%
X558450000Y-218600000D03*
X558450000Y-215400000D03*
X553550000Y-215400000D03*
X553550000Y-218600000D03*
%TD*%
%TO.C,D90*%
X558450000Y-280600000D03*
X558450000Y-277400000D03*
X553550000Y-277400000D03*
X553550000Y-280600000D03*
%TD*%
%TO.C,D65*%
X782450000Y-187600000D03*
X782450000Y-184400000D03*
X777550000Y-184400000D03*
X777550000Y-187600000D03*
%TD*%
%TO.C,D78*%
X530450000Y-249600000D03*
X530450000Y-246400000D03*
X525550000Y-246400000D03*
X525550000Y-249600000D03*
%TD*%
%TO.C,D44*%
X810450000Y-125600000D03*
X810450000Y-122400000D03*
X805550000Y-122400000D03*
X805550000Y-125600000D03*
%TD*%
D12*
%TO.C,C94*%
X668962500Y-286500000D03*
X671037500Y-286500000D03*
%TD*%
D13*
%TO.C,D48*%
X614450000Y-156600000D03*
X614450000Y-153400000D03*
X609550000Y-153400000D03*
X609550000Y-156600000D03*
%TD*%
%TO.C,D92*%
X614450000Y-280600000D03*
X614450000Y-277400000D03*
X609550000Y-277400000D03*
X609550000Y-280600000D03*
%TD*%
D12*
%TO.C,C101*%
X556962500Y-317500000D03*
X559037500Y-317500000D03*
%TD*%
%TO.C,C95*%
X696962500Y-286500000D03*
X699037500Y-286500000D03*
%TD*%
D14*
%TO.C,Hole2*%
X825697056Y-16197056D03*
X821600000Y-14500000D03*
X824000000Y-16900000D03*
X824000000Y-12100000D03*
D15*
X824000000Y-14500000D03*
D14*
X822302944Y-12802944D03*
X825697056Y-12802944D03*
X826400000Y-14500000D03*
X822302944Y-16197056D03*
%TD*%
D13*
%TO.C,D97*%
X754450000Y-280600000D03*
X754450000Y-277400000D03*
X749550000Y-277400000D03*
X749550000Y-280600000D03*
%TD*%
D12*
%TO.C,C103*%
X612925000Y-317500000D03*
X615000000Y-317500000D03*
%TD*%
%TO.C,C50*%
X668962500Y-162500000D03*
X671037500Y-162500000D03*
%TD*%
%TO.C,C61*%
X668962500Y-193500000D03*
X671037500Y-193500000D03*
%TD*%
D13*
%TO.C,D95*%
X698450000Y-280600000D03*
X698450000Y-277400000D03*
X693550000Y-277400000D03*
X693550000Y-280600000D03*
%TD*%
%TO.C,D103*%
X614450000Y-311600000D03*
X614450000Y-308400000D03*
X609550000Y-308400000D03*
X609550000Y-311600000D03*
%TD*%
D12*
%TO.C,C85*%
X724962500Y-255500000D03*
X727037500Y-255500000D03*
%TD*%
%TO.C,C5*%
X640962500Y-38500000D03*
X643037500Y-38500000D03*
%TD*%
D13*
%TO.C,D106*%
X698450000Y-311600000D03*
X698450000Y-308400000D03*
X693550000Y-308400000D03*
X693550000Y-311600000D03*
%TD*%
D12*
%TO.C,C13*%
X556962500Y-69500000D03*
X559037500Y-69500000D03*
%TD*%
D13*
%TO.C,D84*%
X698450000Y-249600000D03*
X698450000Y-246400000D03*
X693550000Y-246400000D03*
X693550000Y-249600000D03*
%TD*%
D12*
%TO.C,C96*%
X724925000Y-286500000D03*
X727000000Y-286500000D03*
%TD*%
D13*
%TO.C,D110*%
X810450000Y-311600000D03*
X810450000Y-308400000D03*
X805550000Y-308400000D03*
X805550000Y-311600000D03*
%TD*%
D12*
%TO.C,C104*%
X640962500Y-317500000D03*
X643037500Y-317500000D03*
%TD*%
%TO.C,C105*%
X668962500Y-317500000D03*
X671037500Y-317500000D03*
%TD*%
D13*
%TO.C,D80*%
X586450000Y-249600000D03*
X586450000Y-246400000D03*
X581550000Y-246400000D03*
X581550000Y-249600000D03*
%TD*%
D12*
%TO.C,C80*%
X584962500Y-255500000D03*
X587037500Y-255500000D03*
%TD*%
D13*
%TO.C,D82*%
X642450000Y-249600000D03*
X642450000Y-246400000D03*
X637550000Y-246400000D03*
X637550000Y-249600000D03*
%TD*%
%TO.C,D5*%
X642450000Y-32600000D03*
X642450000Y-29400000D03*
X637550000Y-29400000D03*
X637550000Y-32600000D03*
%TD*%
%TO.C,D79*%
X558450000Y-249600000D03*
X558450000Y-246400000D03*
X553550000Y-246400000D03*
X553550000Y-249600000D03*
%TD*%
D12*
%TO.C,C20*%
X752962500Y-69500000D03*
X755037500Y-69500000D03*
%TD*%
D13*
%TO.C,D89*%
X530450000Y-280600000D03*
X530450000Y-277400000D03*
X525550000Y-277400000D03*
X525550000Y-280600000D03*
%TD*%
%TO.C,D87*%
X782450000Y-249600000D03*
X782450000Y-246400000D03*
X777550000Y-246400000D03*
X777550000Y-249600000D03*
%TD*%
%TO.C,D81*%
X614450000Y-249600000D03*
X614450000Y-246400000D03*
X609550000Y-246400000D03*
X609550000Y-249600000D03*
%TD*%
%TO.C,D109*%
X782450000Y-311600000D03*
X782450000Y-308400000D03*
X777550000Y-308400000D03*
X777550000Y-311600000D03*
%TD*%
D12*
%TO.C,C8*%
X724962500Y-38500000D03*
X727037500Y-38500000D03*
%TD*%
%TO.C,C55*%
X808925000Y-162500000D03*
X811000000Y-162500000D03*
%TD*%
%TO.C,C89*%
X528962500Y-286500000D03*
X531037500Y-286500000D03*
%TD*%
D13*
%TO.C,D18*%
X698450000Y-63600000D03*
X698450000Y-60400000D03*
X693550000Y-60400000D03*
X693550000Y-63600000D03*
%TD*%
%TO.C,D60*%
X642450000Y-187600000D03*
X642450000Y-184400000D03*
X637550000Y-184400000D03*
X637550000Y-187600000D03*
%TD*%
%TO.C,D100*%
X530450000Y-311600000D03*
X530450000Y-308400000D03*
X525550000Y-308400000D03*
X525550000Y-311600000D03*
%TD*%
D12*
%TO.C,C57*%
X556925000Y-193500000D03*
X559000000Y-193500000D03*
%TD*%
%TO.C,C86*%
X753000000Y-255500000D03*
X755075000Y-255500000D03*
%TD*%
D13*
%TO.C,D28*%
X670450000Y-94600000D03*
X670450000Y-91400000D03*
X665550000Y-91400000D03*
X665550000Y-94600000D03*
%TD*%
%TO.C,D13*%
X558450000Y-63600000D03*
X558450000Y-60400000D03*
X553550000Y-60400000D03*
X553550000Y-63600000D03*
%TD*%
%TO.C,D22*%
X810450000Y-63600000D03*
X810450000Y-60400000D03*
X805550000Y-60400000D03*
X805550000Y-63600000D03*
%TD*%
D12*
%TO.C,C47*%
X584962500Y-162500000D03*
X587037500Y-162500000D03*
%TD*%
%TO.C,C27*%
X640962500Y-100500000D03*
X643037500Y-100500000D03*
%TD*%
D13*
%TO.C,D70*%
X614450000Y-218600000D03*
X614450000Y-215400000D03*
X609550000Y-215400000D03*
X609550000Y-218600000D03*
%TD*%
D12*
%TO.C,C88*%
X808962500Y-255500000D03*
X811037500Y-255500000D03*
%TD*%
D13*
%TO.C,D3*%
X586450000Y-32600000D03*
X586450000Y-29400000D03*
X581550000Y-29400000D03*
X581550000Y-32600000D03*
%TD*%
D12*
%TO.C,C91*%
X584962500Y-286500000D03*
X587037500Y-286500000D03*
%TD*%
D13*
%TO.C,D8*%
X726450000Y-32600000D03*
X726450000Y-29400000D03*
X721550000Y-29400000D03*
X721550000Y-32600000D03*
%TD*%
%TO.C,D11*%
X810450000Y-32600000D03*
X810450000Y-29400000D03*
X805550000Y-29400000D03*
X805550000Y-32600000D03*
%TD*%
D12*
%TO.C,C51*%
X696925000Y-162500000D03*
X699000000Y-162500000D03*
%TD*%
%TO.C,C56*%
X528962500Y-193500000D03*
X531037500Y-193500000D03*
%TD*%
%TO.C,C65*%
X780962500Y-193500000D03*
X783037500Y-193500000D03*
%TD*%
%TO.C,C67*%
X528962500Y-224500000D03*
X531037500Y-224500000D03*
%TD*%
D13*
%TO.C,D64*%
X754450000Y-187600000D03*
X754450000Y-184400000D03*
X749550000Y-184400000D03*
X749550000Y-187600000D03*
%TD*%
%TO.C,D41*%
X726450000Y-125600000D03*
X726450000Y-122400000D03*
X721550000Y-122400000D03*
X721550000Y-125600000D03*
%TD*%
D12*
%TO.C,C59*%
X613000000Y-193500000D03*
X615075000Y-193500000D03*
%TD*%
%TO.C,C108*%
X752925000Y-317500000D03*
X755000000Y-317500000D03*
%TD*%
D13*
%TO.C,D83*%
X670450000Y-249600000D03*
X670450000Y-246400000D03*
X665550000Y-246400000D03*
X665550000Y-249600000D03*
%TD*%
D12*
%TO.C,C23*%
X528962500Y-100500000D03*
X531037500Y-100500000D03*
%TD*%
D13*
%TO.C,D20*%
X754450000Y-63600000D03*
X754450000Y-60400000D03*
X749550000Y-60400000D03*
X749550000Y-63600000D03*
%TD*%
%TO.C,D102*%
X586450000Y-311600000D03*
X586450000Y-308400000D03*
X581550000Y-308400000D03*
X581550000Y-311600000D03*
%TD*%
D12*
%TO.C,C30*%
X724925000Y-100500000D03*
X727000000Y-100500000D03*
%TD*%
D13*
%TO.C,D96*%
X726450000Y-280600000D03*
X726450000Y-277400000D03*
X721550000Y-277400000D03*
X721550000Y-280600000D03*
%TD*%
%TO.C,D94*%
X670450000Y-280600000D03*
X670450000Y-277400000D03*
X665550000Y-277400000D03*
X665550000Y-280600000D03*
%TD*%
%TO.C,D9*%
X754450000Y-32600000D03*
X754450000Y-29400000D03*
X749550000Y-29400000D03*
X749550000Y-32600000D03*
%TD*%
D12*
%TO.C,C83*%
X668962500Y-255500000D03*
X671037500Y-255500000D03*
%TD*%
%TO.C,C43*%
X780962500Y-131500000D03*
X783037500Y-131500000D03*
%TD*%
%TO.C,C48*%
X613000000Y-162500000D03*
X615075000Y-162500000D03*
%TD*%
%TO.C,C87*%
X780962500Y-255500000D03*
X783037500Y-255500000D03*
%TD*%
%TO.C,C98*%
X780925000Y-286500000D03*
X783000000Y-286500000D03*
%TD*%
%TO.C,C33*%
X808925000Y-100500000D03*
X811000000Y-100500000D03*
%TD*%
%TO.C,C45*%
X528962500Y-162500000D03*
X531037500Y-162500000D03*
%TD*%
%TO.C,C38*%
X641000000Y-131500000D03*
X643075000Y-131500000D03*
%TD*%
D13*
%TO.C,D74*%
X726450000Y-218600000D03*
X726450000Y-215400000D03*
X721550000Y-215400000D03*
X721550000Y-218600000D03*
%TD*%
D12*
%TO.C,C106*%
X696925000Y-317500000D03*
X699000000Y-317500000D03*
%TD*%
D13*
%TO.C,D37*%
X614450000Y-125600000D03*
X614450000Y-122400000D03*
X609550000Y-122400000D03*
X609550000Y-125600000D03*
%TD*%
D12*
%TO.C,C44*%
X808925000Y-131500000D03*
X811000000Y-131500000D03*
%TD*%
%TO.C,C58*%
X584962500Y-193500000D03*
X587037500Y-193500000D03*
%TD*%
D13*
%TO.C,D33*%
X810450000Y-94600000D03*
X810450000Y-91400000D03*
X805550000Y-91400000D03*
X805550000Y-94600000D03*
%TD*%
%TO.C,D35*%
X558450000Y-125600000D03*
X558450000Y-122400000D03*
X553550000Y-122400000D03*
X553550000Y-125600000D03*
%TD*%
%TO.C,D104*%
X642450000Y-311600000D03*
X642450000Y-308400000D03*
X637550000Y-308400000D03*
X637550000Y-311600000D03*
%TD*%
D12*
%TO.C,C35*%
X556962500Y-131500000D03*
X559037500Y-131500000D03*
%TD*%
%TO.C,C71*%
X640962500Y-224500000D03*
X643037500Y-224500000D03*
%TD*%
%TO.C,C54*%
X780962500Y-162500000D03*
X783037500Y-162500000D03*
%TD*%
%TO.C,C97*%
X752962500Y-286500000D03*
X755037500Y-286500000D03*
%TD*%
%TO.C,C99*%
X808962500Y-286500000D03*
X811037500Y-286500000D03*
%TD*%
D13*
%TO.C,D52*%
X726450000Y-156600000D03*
X726450000Y-153400000D03*
X721550000Y-153400000D03*
X721550000Y-156600000D03*
%TD*%
D12*
%TO.C,C4*%
X612962500Y-38500000D03*
X615037500Y-38500000D03*
%TD*%
%TO.C,C15*%
X612925000Y-69500000D03*
X615000000Y-69500000D03*
%TD*%
D13*
%TO.C,D73*%
X698450000Y-218600000D03*
X698450000Y-215400000D03*
X693550000Y-215400000D03*
X693550000Y-218600000D03*
%TD*%
D12*
%TO.C,C3*%
X584962500Y-38500000D03*
X587037500Y-38500000D03*
%TD*%
%TO.C,C78*%
X528962500Y-255500000D03*
X531037500Y-255500000D03*
%TD*%
%TO.C,C72*%
X668962500Y-224500000D03*
X671037500Y-224500000D03*
%TD*%
D13*
%TO.C,D16*%
X642450000Y-63600000D03*
X642450000Y-60400000D03*
X637550000Y-60400000D03*
X637550000Y-63600000D03*
%TD*%
D14*
%TO.C,Hole4*%
X822302944Y-324802944D03*
D15*
X824000000Y-326500000D03*
D14*
X822302944Y-328197056D03*
X826400000Y-326500000D03*
X825697056Y-328197056D03*
X821600000Y-326500000D03*
X824000000Y-324100000D03*
X824000000Y-328900000D03*
X825697056Y-324802944D03*
%TD*%
D12*
%TO.C,C82*%
X640962500Y-255500000D03*
X643037500Y-255500000D03*
%TD*%
%TO.C,C42*%
X752962500Y-131500000D03*
X755037500Y-131500000D03*
%TD*%
D13*
%TO.C,D10*%
X782450000Y-32600000D03*
X782450000Y-29400000D03*
X777550000Y-29400000D03*
X777550000Y-32600000D03*
%TD*%
%TO.C,D21*%
X782450000Y-63600000D03*
X782450000Y-60400000D03*
X777550000Y-60400000D03*
X777550000Y-63600000D03*
%TD*%
%TO.C,D61*%
X670450000Y-187600000D03*
X670450000Y-184400000D03*
X665550000Y-184400000D03*
X665550000Y-187600000D03*
%TD*%
%TO.C,D36*%
X586450000Y-125600000D03*
X586450000Y-122400000D03*
X581550000Y-122400000D03*
X581550000Y-125600000D03*
%TD*%
D12*
%TO.C,C102*%
X585000000Y-317500000D03*
X587075000Y-317500000D03*
%TD*%
D13*
%TO.C,D6*%
X670450000Y-32600000D03*
X670450000Y-29400000D03*
X665550000Y-29400000D03*
X665550000Y-32600000D03*
%TD*%
D12*
%TO.C,C74*%
X724962500Y-224500000D03*
X727037500Y-224500000D03*
%TD*%
D13*
%TO.C,D88*%
X810450000Y-249600000D03*
X810450000Y-246400000D03*
X805550000Y-246400000D03*
X805550000Y-249600000D03*
%TD*%
%TO.C,D66*%
X810450000Y-187600000D03*
X810450000Y-184400000D03*
X805550000Y-184400000D03*
X805550000Y-187600000D03*
%TD*%
%TO.C,D40*%
X698450000Y-125600000D03*
X698450000Y-122400000D03*
X693550000Y-122400000D03*
X693550000Y-125600000D03*
%TD*%
D12*
%TO.C,C52*%
X724962500Y-162500000D03*
X727037500Y-162500000D03*
%TD*%
D13*
%TO.C,D32*%
X782450000Y-94600000D03*
X782450000Y-91400000D03*
X777550000Y-91400000D03*
X777550000Y-94600000D03*
%TD*%
%TO.C,D49*%
X642450000Y-156600000D03*
X642450000Y-153400000D03*
X637550000Y-153400000D03*
X637550000Y-156600000D03*
%TD*%
%TO.C,D30*%
X726450000Y-94600000D03*
X726450000Y-91400000D03*
X721550000Y-91400000D03*
X721550000Y-94600000D03*
%TD*%
%TO.C,D58*%
X586450000Y-187600000D03*
X586450000Y-184400000D03*
X581550000Y-184400000D03*
X581550000Y-187600000D03*
%TD*%
%TO.C,D47*%
X586450000Y-156600000D03*
X586450000Y-153400000D03*
X581550000Y-153400000D03*
X581550000Y-156600000D03*
%TD*%
D12*
%TO.C,C12*%
X528962500Y-69500000D03*
X531037500Y-69500000D03*
%TD*%
%TO.C,C14*%
X584962500Y-69500000D03*
X587037500Y-69500000D03*
%TD*%
%TO.C,C49*%
X640962500Y-162500000D03*
X643037500Y-162500000D03*
%TD*%
%TO.C,C66*%
X808962500Y-193500000D03*
X811037500Y-193500000D03*
%TD*%
D13*
%TO.C,D72*%
X670450000Y-218600000D03*
X670450000Y-215400000D03*
X665550000Y-215400000D03*
X665550000Y-218600000D03*
%TD*%
%TO.C,D50*%
X670450000Y-156600000D03*
X670450000Y-153400000D03*
X665550000Y-153400000D03*
X665550000Y-156600000D03*
%TD*%
%TO.C,D91*%
X586450000Y-280600000D03*
X586450000Y-277400000D03*
X581550000Y-277400000D03*
X581550000Y-280600000D03*
%TD*%
D12*
%TO.C,C68*%
X557000000Y-224500000D03*
X559075000Y-224500000D03*
%TD*%
D13*
%TO.C,D99*%
X810450000Y-280600000D03*
X810450000Y-277400000D03*
X805550000Y-277400000D03*
X805550000Y-280600000D03*
%TD*%
D12*
%TO.C,C1*%
X528962500Y-38500000D03*
X531037500Y-38500000D03*
%TD*%
%TO.C,C46*%
X556962500Y-162500000D03*
X559037500Y-162500000D03*
%TD*%
D13*
%TO.C,D23*%
X530450000Y-94600000D03*
X530450000Y-91400000D03*
X525550000Y-91400000D03*
X525550000Y-94600000D03*
%TD*%
D14*
%TO.C,Hole1*%
X511697056Y-11797056D03*
X510000000Y-12500000D03*
X513394112Y-15894112D03*
X514097056Y-14197056D03*
X510000000Y-15894112D03*
X509297056Y-14197056D03*
D15*
X511697056Y-14197056D03*
D14*
X511697056Y-16597056D03*
X513394112Y-12500000D03*
%TD*%
D13*
%TO.C,D67*%
X530450000Y-218600000D03*
X530450000Y-215400000D03*
X525550000Y-215400000D03*
X525550000Y-218600000D03*
%TD*%
D12*
%TO.C,C73*%
X696962500Y-224500000D03*
X699037500Y-224500000D03*
%TD*%
D13*
%TO.C,D76*%
X782450000Y-218600000D03*
X782450000Y-215400000D03*
X777550000Y-215400000D03*
X777550000Y-218600000D03*
%TD*%
%TO.C,D85*%
X726450000Y-249600000D03*
X726450000Y-246400000D03*
X721550000Y-246400000D03*
X721550000Y-249600000D03*
%TD*%
%TO.C,D57*%
X558450000Y-187600000D03*
X558450000Y-184400000D03*
X553550000Y-184400000D03*
X553550000Y-187600000D03*
%TD*%
%TO.C,D4*%
X614450000Y-32600000D03*
X614450000Y-29400000D03*
X609550000Y-29400000D03*
X609550000Y-32600000D03*
%TD*%
D12*
%TO.C,C16*%
X640962500Y-69500000D03*
X643037500Y-69500000D03*
%TD*%
%TO.C,C18*%
X696962500Y-69500000D03*
X699037500Y-69500000D03*
%TD*%
%TO.C,C64*%
X752962500Y-193500000D03*
X755037500Y-193500000D03*
%TD*%
%TO.C,C2*%
X556962500Y-38500000D03*
X559037500Y-38500000D03*
%TD*%
%TO.C,C32*%
X780962500Y-100500000D03*
X783037500Y-100500000D03*
%TD*%
%TO.C,C22*%
X808925000Y-69500000D03*
X811000000Y-69500000D03*
%TD*%
D13*
%TO.C,D53*%
X754450000Y-156600000D03*
X754450000Y-153400000D03*
X749550000Y-153400000D03*
X749550000Y-156600000D03*
%TD*%
%TO.C,D54*%
X782450000Y-156600000D03*
X782450000Y-153400000D03*
X777550000Y-153400000D03*
X777550000Y-156600000D03*
%TD*%
D12*
%TO.C,C92*%
X612962500Y-286500000D03*
X615037500Y-286500000D03*
%TD*%
%TO.C,C19*%
X724962500Y-69500000D03*
X727037500Y-69500000D03*
%TD*%
%TO.C,C84*%
X696962500Y-255500000D03*
X699037500Y-255500000D03*
%TD*%
%TO.C,C93*%
X640962500Y-286500000D03*
X643037500Y-286500000D03*
%TD*%
D13*
%TO.C,D59*%
X614450000Y-187600000D03*
X614450000Y-184400000D03*
X609550000Y-184400000D03*
X609550000Y-187600000D03*
%TD*%
D12*
%TO.C,C107*%
X724925000Y-317500000D03*
X727000000Y-317500000D03*
%TD*%
D13*
%TO.C,D1*%
X530450000Y-32600000D03*
X530450000Y-29400000D03*
X525550000Y-29400000D03*
X525550000Y-32600000D03*
%TD*%
%TO.C,D17*%
X670450000Y-63600000D03*
X670450000Y-60400000D03*
X665550000Y-60400000D03*
X665550000Y-63600000D03*
%TD*%
D12*
%TO.C,C11*%
X808962500Y-38500000D03*
X811037500Y-38500000D03*
%TD*%
%TO.C,C25*%
X584925000Y-100500000D03*
X587000000Y-100500000D03*
%TD*%
D13*
%TO.C,D56*%
X530450000Y-187600000D03*
X530450000Y-184400000D03*
X525550000Y-184400000D03*
X525550000Y-187600000D03*
%TD*%
D12*
%TO.C,C36*%
X584962500Y-131500000D03*
X587037500Y-131500000D03*
%TD*%
D13*
%TO.C,D31*%
X754450000Y-94600000D03*
X754450000Y-91400000D03*
X749550000Y-91400000D03*
X749550000Y-94600000D03*
%TD*%
%TO.C,D63*%
X726450000Y-187600000D03*
X726450000Y-184400000D03*
X721550000Y-184400000D03*
X721550000Y-187600000D03*
%TD*%
%TO.C,D71*%
X642450000Y-218600000D03*
X642450000Y-215400000D03*
X637550000Y-215400000D03*
X637550000Y-218600000D03*
%TD*%
%TO.C,D45*%
X530450000Y-156600000D03*
X530450000Y-153400000D03*
X525550000Y-153400000D03*
X525550000Y-156600000D03*
%TD*%
D12*
%TO.C,C9*%
X752962500Y-38500000D03*
X755037500Y-38500000D03*
%TD*%
D13*
%TO.C,D108*%
X754450000Y-311600000D03*
X754450000Y-308400000D03*
X749550000Y-308400000D03*
X749550000Y-311600000D03*
%TD*%
D12*
%TO.C,C109*%
X780962500Y-317500000D03*
X783037500Y-317500000D03*
%TD*%
%TO.C,C75*%
X752962500Y-224500000D03*
X755037500Y-224500000D03*
%TD*%
D13*
%TO.C,D105*%
X670450000Y-311600000D03*
X670450000Y-308400000D03*
X665550000Y-308400000D03*
X665550000Y-311600000D03*
%TD*%
%TO.C,D14*%
X586450000Y-63600000D03*
X586450000Y-60400000D03*
X581550000Y-60400000D03*
X581550000Y-63600000D03*
%TD*%
%TO.C,D51*%
X698450000Y-156600000D03*
X698450000Y-153400000D03*
X693550000Y-153400000D03*
X693550000Y-156600000D03*
%TD*%
%TO.C,D107*%
X726450000Y-311600000D03*
X726450000Y-308400000D03*
X721550000Y-308400000D03*
X721550000Y-311600000D03*
%TD*%
D16*
%TO.C,J1*%
X667957500Y-236500000D03*
D17*
X667957500Y-242500000D03*
D18*
X663257500Y-239500000D03*
%TD*%
D19*
%TO.C,J3*%
X522000000Y-31500000D03*
D20*
X522000000Y-34040000D03*
X522000000Y-36580000D03*
%TD*%
D19*
%TO.C,J2*%
X815000000Y-308975000D03*
D20*
X815000000Y-311515000D03*
X815000000Y-314055000D03*
%TD*%
M02*
