%TF.GenerationSoftware,KiCad,Pcbnew,(6.0.2)*%
%TF.CreationDate,2022-03-31T08:33:35+02:00*%
%TF.ProjectId,Wordclock,576f7264-636c-46f6-936b-2e6b69636164,rev?*%
%TF.SameCoordinates,Original*%
%TF.FileFunction,Soldermask,Bot*%
%TF.FilePolarity,Negative*%
%FSLAX46Y46*%
G04 Gerber Fmt 4.6, Leading zero omitted, Abs format (unit mm)*
G04 Created by KiCad (PCBNEW (6.0.2)) date 2022-03-31 08:33:35*
%MOMM*%
%LPD*%
G01*
G04 APERTURE LIST*
G04 Aperture macros list*
%AMRoundRect*
0 Rectangle with rounded corners*
0 $1 Rounding radius*
0 $2 $3 $4 $5 $6 $7 $8 $9 X,Y pos of 4 corners*
0 Add a 4 corners polygon primitive as box body*
4,1,4,$2,$3,$4,$5,$6,$7,$8,$9,$2,$3,0*
0 Add four circle primitives for the rounded corners*
1,1,$1+$1,$2,$3*
1,1,$1+$1,$4,$5*
1,1,$1+$1,$6,$7*
1,1,$1+$1,$8,$9*
0 Add four rect primitives between the rounded corners*
20,1,$1+$1,$2,$3,$4,$5,0*
20,1,$1+$1,$4,$5,$6,$7,0*
20,1,$1+$1,$6,$7,$8,$9,0*
20,1,$1+$1,$8,$9,$2,$3,0*%
G04 Aperture macros list end*
%ADD10R,3.000000X3.000000*%
%ADD11C,3.000000*%
%ADD12C,0.800000*%
%ADD13C,7.000000*%
%ADD14R,3.500000X3.500000*%
%ADD15RoundRect,0.750000X1.000000X-0.750000X1.000000X0.750000X-1.000000X0.750000X-1.000000X-0.750000X0*%
%ADD16RoundRect,0.875000X0.875000X-0.875000X0.875000X0.875000X-0.875000X0.875000X-0.875000X-0.875000X0*%
%ADD17R,1.700000X1.700000*%
%ADD18O,1.700000X1.700000*%
G04 APERTURE END LIST*
D10*
%TO.C,J4*%
X513000000Y-25500000D03*
D11*
X513000000Y-30580000D03*
%TD*%
D10*
%TO.C,J5*%
X513000000Y-315500000D03*
D11*
X513000000Y-310420000D03*
%TD*%
D12*
%TO.C,Hole7*%
X740856155Y-230643845D03*
X737143845Y-234356155D03*
X741625000Y-232500000D03*
X736375000Y-232500000D03*
X737143845Y-230643845D03*
X739000000Y-229875000D03*
X740856155Y-234356155D03*
X739000000Y-235125000D03*
D13*
X739000000Y-232500000D03*
%TD*%
D12*
%TO.C,Hole3*%
X823000000Y-322875000D03*
X824856155Y-323643845D03*
X821143845Y-327356155D03*
X824856155Y-327356155D03*
X825625000Y-325500000D03*
D13*
X823000000Y-325500000D03*
D12*
X820375000Y-325500000D03*
X823000000Y-328125000D03*
X821143845Y-323643845D03*
%TD*%
%TO.C,Hole8*%
X599106155Y-230643845D03*
X599875000Y-232500000D03*
X594625000Y-232500000D03*
X595393845Y-230643845D03*
D13*
X597250000Y-232500000D03*
D12*
X599106155Y-234356155D03*
X597250000Y-229875000D03*
X595393845Y-234356155D03*
X597250000Y-235125000D03*
%TD*%
%TO.C,Hole2*%
X823000000Y-18125000D03*
X823000000Y-12875000D03*
X824856155Y-13643845D03*
X821143845Y-13643845D03*
X824856155Y-17356155D03*
X821143845Y-17356155D03*
X820375000Y-15500000D03*
D13*
X823000000Y-15500000D03*
D12*
X825625000Y-15500000D03*
%TD*%
%TO.C,Hole6*%
X736893845Y-106643845D03*
X736125000Y-108500000D03*
X738750000Y-111125000D03*
X740606155Y-106643845D03*
X741375000Y-108500000D03*
D13*
X738750000Y-108500000D03*
D12*
X736893845Y-110356155D03*
X738750000Y-105875000D03*
X740606155Y-110356155D03*
%TD*%
%TO.C,Hole4*%
X511143845Y-323643845D03*
X513000000Y-322875000D03*
X514856155Y-323643845D03*
X513000000Y-328125000D03*
D13*
X513000000Y-325500000D03*
D12*
X515625000Y-325500000D03*
X514856155Y-327356155D03*
X510375000Y-325500000D03*
X511143845Y-327356155D03*
%TD*%
%TO.C,Hole5*%
X599875000Y-108500000D03*
X595393845Y-106643845D03*
X597250000Y-105875000D03*
X594625000Y-108500000D03*
X599106155Y-110356155D03*
X599106155Y-106643845D03*
X597250000Y-111125000D03*
D13*
X597250000Y-108500000D03*
D12*
X595393845Y-110356155D03*
%TD*%
%TO.C,Hole1*%
X514856155Y-13643845D03*
X511143845Y-13643845D03*
X514856155Y-17356155D03*
X510375000Y-15500000D03*
X511143845Y-17356155D03*
D13*
X513000000Y-15500000D03*
D12*
X513000000Y-12875000D03*
X515625000Y-15500000D03*
X513000000Y-18125000D03*
%TD*%
D14*
%TO.C,J1*%
X667957500Y-205500000D03*
D15*
X667957500Y-211500000D03*
D16*
X663257500Y-208500000D03*
%TD*%
D17*
%TO.C,J3*%
X520840000Y-32500000D03*
D18*
X520840000Y-29960000D03*
X520840000Y-27420000D03*
%TD*%
D17*
%TO.C,J2*%
X815160000Y-308500000D03*
D18*
X815160000Y-305960000D03*
X815160000Y-303420000D03*
%TD*%
M02*
