%TF.GenerationSoftware,KiCad,Pcbnew,(6.0.2)*%
%TF.CreationDate,2022-03-31T08:33:35+02:00*%
%TF.ProjectId,Wordclock,576f7264-636c-46f6-936b-2e6b69636164,rev?*%
%TF.SameCoordinates,Original*%
%TF.FileFunction,Legend,Bot*%
%TF.FilePolarity,Positive*%
%FSLAX46Y46*%
G04 Gerber Fmt 4.6, Leading zero omitted, Abs format (unit mm)*
G04 Created by KiCad (PCBNEW (6.0.2)) date 2022-03-31 08:33:35*
%MOMM*%
%LPD*%
G01*
G04 APERTURE LIST*
G04 Aperture macros list*
%AMRoundRect*
0 Rectangle with rounded corners*
0 $1 Rounding radius*
0 $2 $3 $4 $5 $6 $7 $8 $9 X,Y pos of 4 corners*
0 Add a 4 corners polygon primitive as box body*
4,1,4,$2,$3,$4,$5,$6,$7,$8,$9,$2,$3,0*
0 Add four circle primitives for the rounded corners*
1,1,$1+$1,$2,$3*
1,1,$1+$1,$4,$5*
1,1,$1+$1,$6,$7*
1,1,$1+$1,$8,$9*
0 Add four rect primitives between the rounded corners*
20,1,$1+$1,$2,$3,$4,$5,0*
20,1,$1+$1,$4,$5,$6,$7,0*
20,1,$1+$1,$6,$7,$8,$9,0*
20,1,$1+$1,$8,$9,$2,$3,0*%
G04 Aperture macros list end*
%ADD10C,0.150000*%
%ADD11C,0.120000*%
%ADD12R,3.000000X3.000000*%
%ADD13C,3.000000*%
%ADD14C,0.800000*%
%ADD15C,7.000000*%
%ADD16R,3.500000X3.500000*%
%ADD17RoundRect,0.750000X1.000000X-0.750000X1.000000X0.750000X-1.000000X0.750000X-1.000000X-0.750000X0*%
%ADD18RoundRect,0.875000X0.875000X-0.875000X0.875000X0.875000X-0.875000X0.875000X-0.875000X-0.875000X0*%
%ADD19R,1.700000X1.700000*%
%ADD20O,1.700000X1.700000*%
G04 APERTURE END LIST*
D10*
X513190476Y-305952380D02*
X513666666Y-305952380D01*
X513714285Y-306428571D01*
X513666666Y-306380952D01*
X513571428Y-306333333D01*
X513333333Y-306333333D01*
X513238095Y-306380952D01*
X513190476Y-306428571D01*
X513142857Y-306523809D01*
X513142857Y-306761904D01*
X513190476Y-306857142D01*
X513238095Y-306904761D01*
X513333333Y-306952380D01*
X513571428Y-306952380D01*
X513666666Y-306904761D01*
X513714285Y-306857142D01*
X512857142Y-305952380D02*
X512523809Y-306952380D01*
X512190476Y-305952380D01*
X528504214Y-29490380D02*
X528980404Y-29490380D01*
X529028023Y-29966571D01*
X528980404Y-29918952D01*
X528885166Y-29871333D01*
X528647071Y-29871333D01*
X528551833Y-29918952D01*
X528504214Y-29966571D01*
X528456595Y-30061809D01*
X528456595Y-30299904D01*
X528504214Y-30395142D01*
X528551833Y-30442761D01*
X528647071Y-30490380D01*
X528885166Y-30490380D01*
X528980404Y-30442761D01*
X529028023Y-30395142D01*
X528170880Y-29490380D02*
X527837547Y-30490380D01*
X527504214Y-29490380D01*
X513190476Y-33952380D02*
X513666666Y-33952380D01*
X513714285Y-34428571D01*
X513666666Y-34380952D01*
X513571428Y-34333333D01*
X513333333Y-34333333D01*
X513238095Y-34380952D01*
X513190476Y-34428571D01*
X513142857Y-34523809D01*
X513142857Y-34761904D01*
X513190476Y-34857142D01*
X513238095Y-34904761D01*
X513333333Y-34952380D01*
X513571428Y-34952380D01*
X513666666Y-34904761D01*
X513714285Y-34857142D01*
X512857142Y-33952380D02*
X512523809Y-34952380D01*
X512190476Y-33952380D01*
X528456595Y-26998000D02*
X528551833Y-26950380D01*
X528694690Y-26950380D01*
X528837547Y-26998000D01*
X528932785Y-27093238D01*
X528980404Y-27188476D01*
X529028023Y-27378952D01*
X529028023Y-27521809D01*
X528980404Y-27712285D01*
X528932785Y-27807523D01*
X528837547Y-27902761D01*
X528694690Y-27950380D01*
X528599452Y-27950380D01*
X528456595Y-27902761D01*
X528408976Y-27855142D01*
X528408976Y-27521809D01*
X528599452Y-27521809D01*
X527980404Y-27950380D02*
X527980404Y-26950380D01*
X527408976Y-27950380D01*
X527408976Y-26950380D01*
X526932785Y-27950380D02*
X526932785Y-26950380D01*
X526694690Y-26950380D01*
X526551833Y-26998000D01*
X526456595Y-27093238D01*
X526408976Y-27188476D01*
X526361357Y-27378952D01*
X526361357Y-27521809D01*
X526408976Y-27712285D01*
X526456595Y-27807523D01*
X526551833Y-27902761D01*
X526694690Y-27950380D01*
X526932785Y-27950380D01*
X513761904Y-319000000D02*
X513857142Y-318952380D01*
X514000000Y-318952380D01*
X514142857Y-319000000D01*
X514238095Y-319095238D01*
X514285714Y-319190476D01*
X514333333Y-319380952D01*
X514333333Y-319523809D01*
X514285714Y-319714285D01*
X514238095Y-319809523D01*
X514142857Y-319904761D01*
X514000000Y-319952380D01*
X513904761Y-319952380D01*
X513761904Y-319904761D01*
X513714285Y-319857142D01*
X513714285Y-319523809D01*
X513904761Y-319523809D01*
X513285714Y-319952380D02*
X513285714Y-318952380D01*
X512714285Y-319952380D01*
X512714285Y-318952380D01*
X512238095Y-319952380D02*
X512238095Y-318952380D01*
X512000000Y-318952380D01*
X511857142Y-319000000D01*
X511761904Y-319095238D01*
X511714285Y-319190476D01*
X511666666Y-319380952D01*
X511666666Y-319523809D01*
X511714285Y-319714285D01*
X511761904Y-319809523D01*
X511857142Y-319904761D01*
X512000000Y-319952380D01*
X512238095Y-319952380D01*
X528980404Y-33030380D02*
X528980404Y-32030380D01*
X528742309Y-32030380D01*
X528599452Y-32078000D01*
X528504214Y-32173238D01*
X528456595Y-32268476D01*
X528408976Y-32458952D01*
X528408976Y-32601809D01*
X528456595Y-32792285D01*
X528504214Y-32887523D01*
X528599452Y-32982761D01*
X528742309Y-33030380D01*
X528980404Y-33030380D01*
X528028023Y-32744666D02*
X527551833Y-32744666D01*
X528123261Y-33030380D02*
X527789928Y-32030380D01*
X527456595Y-33030380D01*
X527266119Y-32030380D02*
X526694690Y-32030380D01*
X526980404Y-33030380D02*
X526980404Y-32030380D01*
X526408976Y-32744666D02*
X525932785Y-32744666D01*
X526504214Y-33030380D02*
X526170880Y-32030380D01*
X525837547Y-33030380D01*
X525742309Y-33125619D02*
X524980404Y-33125619D01*
X524742309Y-33030380D02*
X524742309Y-32030380D01*
X524266119Y-33030380D02*
X524266119Y-32030380D01*
X523694690Y-33030380D01*
X523694690Y-32030380D01*
X820243214Y-302842000D02*
X820338452Y-302794380D01*
X820481309Y-302794380D01*
X820624166Y-302842000D01*
X820719404Y-302937238D01*
X820767023Y-303032476D01*
X820814642Y-303222952D01*
X820814642Y-303365809D01*
X820767023Y-303556285D01*
X820719404Y-303651523D01*
X820624166Y-303746761D01*
X820481309Y-303794380D01*
X820386071Y-303794380D01*
X820243214Y-303746761D01*
X820195595Y-303699142D01*
X820195595Y-303365809D01*
X820386071Y-303365809D01*
X819767023Y-303794380D02*
X819767023Y-302794380D01*
X819195595Y-303794380D01*
X819195595Y-302794380D01*
X818719404Y-303794380D02*
X818719404Y-302794380D01*
X818481309Y-302794380D01*
X818338452Y-302842000D01*
X818243214Y-302937238D01*
X818195595Y-303032476D01*
X818147976Y-303222952D01*
X818147976Y-303365809D01*
X818195595Y-303556285D01*
X818243214Y-303651523D01*
X818338452Y-303746761D01*
X818481309Y-303794380D01*
X818719404Y-303794380D01*
X819182738Y-305588380D02*
X819658928Y-305588380D01*
X819706547Y-306064571D01*
X819658928Y-306016952D01*
X819563690Y-305969333D01*
X819325595Y-305969333D01*
X819230357Y-306016952D01*
X819182738Y-306064571D01*
X819135119Y-306159809D01*
X819135119Y-306397904D01*
X819182738Y-306493142D01*
X819230357Y-306540761D01*
X819325595Y-306588380D01*
X819563690Y-306588380D01*
X819658928Y-306540761D01*
X819706547Y-306493142D01*
X818849404Y-305588380D02*
X818516071Y-306588380D01*
X818182738Y-305588380D01*
X513761904Y-21000000D02*
X513857142Y-20952380D01*
X514000000Y-20952380D01*
X514142857Y-21000000D01*
X514238095Y-21095238D01*
X514285714Y-21190476D01*
X514333333Y-21380952D01*
X514333333Y-21523809D01*
X514285714Y-21714285D01*
X514238095Y-21809523D01*
X514142857Y-21904761D01*
X514000000Y-21952380D01*
X513904761Y-21952380D01*
X513761904Y-21904761D01*
X513714285Y-21857142D01*
X513714285Y-21523809D01*
X513904761Y-21523809D01*
X513285714Y-21952380D02*
X513285714Y-20952380D01*
X512714285Y-21952380D01*
X512714285Y-20952380D01*
X512238095Y-21952380D02*
X512238095Y-20952380D01*
X512000000Y-20952380D01*
X511857142Y-21000000D01*
X511761904Y-21095238D01*
X511714285Y-21190476D01*
X511666666Y-21380952D01*
X511666666Y-21523809D01*
X511714285Y-21714285D01*
X511761904Y-21809523D01*
X511857142Y-21904761D01*
X512000000Y-21952380D01*
X512238095Y-21952380D01*
X824814642Y-309128380D02*
X824814642Y-308128380D01*
X824576547Y-308128380D01*
X824433690Y-308176000D01*
X824338452Y-308271238D01*
X824290833Y-308366476D01*
X824243214Y-308556952D01*
X824243214Y-308699809D01*
X824290833Y-308890285D01*
X824338452Y-308985523D01*
X824433690Y-309080761D01*
X824576547Y-309128380D01*
X824814642Y-309128380D01*
X823862261Y-308842666D02*
X823386071Y-308842666D01*
X823957500Y-309128380D02*
X823624166Y-308128380D01*
X823290833Y-309128380D01*
X823100357Y-308128380D02*
X822528928Y-308128380D01*
X822814642Y-309128380D02*
X822814642Y-308128380D01*
X822243214Y-308842666D02*
X821767023Y-308842666D01*
X822338452Y-309128380D02*
X822005119Y-308128380D01*
X821671785Y-309128380D01*
X821576547Y-309223619D02*
X820814642Y-309223619D01*
X820386071Y-308128380D02*
X820195595Y-308128380D01*
X820100357Y-308176000D01*
X820005119Y-308271238D01*
X819957500Y-308461714D01*
X819957500Y-308795047D01*
X820005119Y-308985523D01*
X820100357Y-309080761D01*
X820195595Y-309128380D01*
X820386071Y-309128380D01*
X820481309Y-309080761D01*
X820576547Y-308985523D01*
X820624166Y-308795047D01*
X820624166Y-308461714D01*
X820576547Y-308271238D01*
X820481309Y-308176000D01*
X820386071Y-308128380D01*
X819528928Y-308128380D02*
X819528928Y-308937904D01*
X819481309Y-309033142D01*
X819433690Y-309080761D01*
X819338452Y-309128380D01*
X819147976Y-309128380D01*
X819052738Y-309080761D01*
X819005119Y-309033142D01*
X818957500Y-308937904D01*
X818957500Y-308128380D01*
X818624166Y-308128380D02*
X818052738Y-308128380D01*
X818338452Y-309128380D02*
X818338452Y-308128380D01*
%TO.C,J1*%
X661659880Y-213616666D02*
X662374166Y-213616666D01*
X662517023Y-213569047D01*
X662612261Y-213473809D01*
X662659880Y-213330952D01*
X662659880Y-213235714D01*
X662659880Y-214616666D02*
X662659880Y-214045238D01*
X662659880Y-214330952D02*
X661659880Y-214330952D01*
X661802738Y-214235714D01*
X661897976Y-214140476D01*
X661945595Y-214045238D01*
D11*
X671707500Y-204400000D02*
X672757500Y-204400000D01*
X663357500Y-210500000D02*
X663357500Y-219300000D01*
X663357500Y-204600000D02*
X663357500Y-206500000D01*
X672557500Y-219300000D02*
X672557500Y-204600000D01*
X672557500Y-204600000D02*
X669957500Y-204600000D01*
X663357500Y-219300000D02*
X672557500Y-219300000D01*
X672757500Y-205450000D02*
X672757500Y-204400000D01*
X666057500Y-204600000D02*
X663357500Y-204600000D01*
%TO.C,J3*%
X519510000Y-26090000D02*
X522170000Y-26090000D01*
X519510000Y-31230000D02*
X519510000Y-26090000D01*
X522170000Y-31230000D02*
X522170000Y-26090000D01*
X519510000Y-32500000D02*
X519510000Y-33830000D01*
X519510000Y-31230000D02*
X522170000Y-31230000D01*
X519510000Y-33830000D02*
X520840000Y-33830000D01*
%TO.C,J2*%
X813830000Y-308500000D02*
X813830000Y-309830000D01*
X813830000Y-307230000D02*
X816490000Y-307230000D01*
X813830000Y-307230000D02*
X813830000Y-302090000D01*
X816490000Y-307230000D02*
X816490000Y-302090000D01*
X813830000Y-309830000D02*
X815160000Y-309830000D01*
X813830000Y-302090000D02*
X816490000Y-302090000D01*
%TD*%
%LPC*%
D12*
%TO.C,J4*%
X513000000Y-25500000D03*
D13*
X513000000Y-30580000D03*
%TD*%
D12*
%TO.C,J5*%
X513000000Y-315500000D03*
D13*
X513000000Y-310420000D03*
%TD*%
D14*
%TO.C,Hole7*%
X740856155Y-230643845D03*
X737143845Y-234356155D03*
X741625000Y-232500000D03*
X736375000Y-232500000D03*
X737143845Y-230643845D03*
X739000000Y-229875000D03*
X740856155Y-234356155D03*
X739000000Y-235125000D03*
D15*
X739000000Y-232500000D03*
%TD*%
D14*
%TO.C,Hole3*%
X823000000Y-322875000D03*
X824856155Y-323643845D03*
X821143845Y-327356155D03*
X824856155Y-327356155D03*
X825625000Y-325500000D03*
D15*
X823000000Y-325500000D03*
D14*
X820375000Y-325500000D03*
X823000000Y-328125000D03*
X821143845Y-323643845D03*
%TD*%
%TO.C,Hole8*%
X599106155Y-230643845D03*
X599875000Y-232500000D03*
X594625000Y-232500000D03*
X595393845Y-230643845D03*
D15*
X597250000Y-232500000D03*
D14*
X599106155Y-234356155D03*
X597250000Y-229875000D03*
X595393845Y-234356155D03*
X597250000Y-235125000D03*
%TD*%
%TO.C,Hole2*%
X823000000Y-18125000D03*
X823000000Y-12875000D03*
X824856155Y-13643845D03*
X821143845Y-13643845D03*
X824856155Y-17356155D03*
X821143845Y-17356155D03*
X820375000Y-15500000D03*
D15*
X823000000Y-15500000D03*
D14*
X825625000Y-15500000D03*
%TD*%
%TO.C,Hole6*%
X736893845Y-106643845D03*
X736125000Y-108500000D03*
X738750000Y-111125000D03*
X740606155Y-106643845D03*
X741375000Y-108500000D03*
D15*
X738750000Y-108500000D03*
D14*
X736893845Y-110356155D03*
X738750000Y-105875000D03*
X740606155Y-110356155D03*
%TD*%
%TO.C,Hole4*%
X511143845Y-323643845D03*
X513000000Y-322875000D03*
X514856155Y-323643845D03*
X513000000Y-328125000D03*
D15*
X513000000Y-325500000D03*
D14*
X515625000Y-325500000D03*
X514856155Y-327356155D03*
X510375000Y-325500000D03*
X511143845Y-327356155D03*
%TD*%
%TO.C,Hole5*%
X599875000Y-108500000D03*
X595393845Y-106643845D03*
X597250000Y-105875000D03*
X594625000Y-108500000D03*
X599106155Y-110356155D03*
X599106155Y-106643845D03*
X597250000Y-111125000D03*
D15*
X597250000Y-108500000D03*
D14*
X595393845Y-110356155D03*
%TD*%
%TO.C,Hole1*%
X514856155Y-13643845D03*
X511143845Y-13643845D03*
X514856155Y-17356155D03*
X510375000Y-15500000D03*
X511143845Y-17356155D03*
D15*
X513000000Y-15500000D03*
D14*
X513000000Y-12875000D03*
X515625000Y-15500000D03*
X513000000Y-18125000D03*
%TD*%
D16*
%TO.C,J1*%
X667957500Y-205500000D03*
D17*
X667957500Y-211500000D03*
D18*
X663257500Y-208500000D03*
%TD*%
D19*
%TO.C,J3*%
X520840000Y-32500000D03*
D20*
X520840000Y-29960000D03*
X520840000Y-27420000D03*
%TD*%
D19*
%TO.C,J2*%
X815160000Y-308500000D03*
D20*
X815160000Y-305960000D03*
X815160000Y-303420000D03*
%TD*%
M02*
