M48
; DRILL file {KiCad (6.0.2)} date Mon Mar 14 14:46:02 2022
; FORMAT={-:-/ absolute / metric / decimal}
; #@! TF.CreationDate,2022-03-14T14:46:02+01:00
; #@! TF.GenerationSoftware,Kicad,Pcbnew,(6.0.2)
; #@! TF.FileFunction,Plated,1,2,PTH
FMAT,2
METRIC
; #@! TA.AperFunction,Plated,PTH,ViaDrill
T1C0.400
; #@! TA.AperFunction,Plated,PTH,ComponentDrill
T2C0.500
; #@! TA.AperFunction,Plated,PTH,ComponentDrill
T3C1.000
; #@! TA.AperFunction,Plated,PTH,ComponentDrill
T4C1.520
; #@! TA.AperFunction,Plated,PTH,ComponentDrill
T5C3.200
%
G90
G05
T1
X518.3Y-44.5
X518.3Y-69.2
X518.3Y-100.2
X518.3Y-131.2
X518.3Y-162.2
X518.3Y-193.2
X518.3Y-224.2
X518.3Y-229.2
X518.3Y-255.2
X518.3Y-286.2
X518.3Y-313.8
X524.0Y-63.5
X524.0Y-94.5
X524.0Y-125.5
X524.0Y-156.5
X524.0Y-187.5
X524.0Y-218.5
X524.0Y-249.5
X524.0Y-280.5
X524.0Y-311.5
X812.0Y-29.5
X812.0Y-60.5
X812.0Y-91.5
X812.0Y-122.5
X812.0Y-153.5
X812.0Y-184.5
X812.0Y-215.5
X812.0Y-246.5
X812.0Y-277.5
T2
X509.297Y-14.197
X509.6Y-326.5
X510.0Y-12.5
X510.0Y-15.894
X510.303Y-324.803
X510.303Y-328.197
X511.697Y-11.797
X511.697Y-16.597
X512.0Y-324.1
X512.0Y-328.9
X513.394Y-12.5
X513.394Y-15.894
X513.697Y-324.803
X513.697Y-328.197
X514.097Y-14.197
X514.4Y-326.5
X665.6Y-170.5
X666.303Y-168.803
X666.303Y-172.197
X668.0Y-168.1
X668.0Y-172.9
X669.697Y-168.803
X669.697Y-172.197
X670.4Y-170.5
X821.6Y-14.5
X821.6Y-326.5
X822.303Y-12.803
X822.303Y-16.197
X822.303Y-324.803
X822.303Y-328.197
X824.0Y-12.1
X824.0Y-16.9
X824.0Y-324.1
X824.0Y-328.9
X825.697Y-12.803
X825.697Y-16.197
X825.697Y-324.803
X825.697Y-328.197
X826.4Y-14.5
X826.4Y-326.5
T3
X522.0Y-31.5
X522.0Y-34.04
X522.0Y-36.58
X815.0Y-308.975
X815.0Y-311.515
X815.0Y-314.055
T4
X512.0Y-21.5
X512.0Y-26.58
T5
X511.697Y-14.197
X512.0Y-326.5
X668.0Y-170.5
X824.0Y-14.5
X824.0Y-326.5
T3
X663.257Y-240.5G85X663.257Y-238.5
G05
X666.957Y-236.5G85X668.957Y-236.5
G05
X666.957Y-242.5G85X668.957Y-242.5
G05
T0
M30
