M48
; DRILL file {KiCad (6.0.2)} date Thu Mar 31 08:33:37 2022
; FORMAT={-:-/ absolute / metric / decimal}
; #@! TF.CreationDate,2022-03-31T08:33:37+02:00
; #@! TF.GenerationSoftware,Kicad,Pcbnew,(6.0.2)
; #@! TF.FileFunction,Plated,1,2,PTH
FMAT,2
METRIC
; #@! TA.AperFunction,Plated,PTH,ViaDrill
T1C0.400
; #@! TA.AperFunction,Plated,PTH,ComponentDrill
T2C0.500
; #@! TA.AperFunction,Plated,PTH,ComponentDrill
T3C1.000
; #@! TA.AperFunction,Plated,PTH,ComponentDrill
T4C1.520
; #@! TA.AperFunction,Plated,PTH,ComponentDrill
T5C3.500
%
G90
G05
T1
X520.84Y-63.5
X520.84Y-94.5
X520.84Y-125.5
X520.84Y-156.5
X520.84Y-187.5
X520.84Y-218.5
X520.84Y-249.5
X520.84Y-280.5
X520.84Y-311.5
X815.16Y-29.5
X815.16Y-60.5
X815.16Y-91.5
X815.16Y-122.5
X815.16Y-153.5
X815.16Y-184.5
X815.16Y-215.5
X815.16Y-246.5
X815.16Y-277.5
T2
X510.375Y-15.5
X510.375Y-325.5
X511.144Y-13.644
X511.144Y-17.356
X511.144Y-323.644
X511.144Y-327.356
X513.0Y-12.875
X513.0Y-18.125
X513.0Y-322.875
X513.0Y-328.125
X514.856Y-13.644
X514.856Y-17.356
X514.856Y-323.644
X514.856Y-327.356
X515.625Y-15.5
X515.625Y-325.5
X594.625Y-108.5
X594.625Y-232.5
X595.394Y-106.644
X595.394Y-110.356
X595.394Y-230.644
X595.394Y-234.356
X597.25Y-105.875
X597.25Y-111.125
X597.25Y-229.875
X597.25Y-235.125
X599.106Y-106.644
X599.106Y-110.356
X599.106Y-230.644
X599.106Y-234.356
X599.875Y-108.5
X599.875Y-232.5
X736.125Y-108.5
X736.375Y-232.5
X736.894Y-106.644
X736.894Y-110.356
X737.144Y-230.644
X737.144Y-234.356
X738.75Y-105.875
X738.75Y-111.125
X739.0Y-229.875
X739.0Y-235.125
X740.606Y-106.644
X740.606Y-110.356
X740.856Y-230.644
X740.856Y-234.356
X741.375Y-108.5
X741.625Y-232.5
X820.375Y-15.5
X820.375Y-325.5
X821.144Y-13.644
X821.144Y-17.356
X821.144Y-323.644
X821.144Y-327.356
X823.0Y-12.875
X823.0Y-18.125
X823.0Y-322.875
X823.0Y-328.125
X824.856Y-13.644
X824.856Y-17.356
X824.856Y-323.644
X824.856Y-327.356
X825.625Y-15.5
X825.625Y-325.5
T3
X520.84Y-27.42
X520.84Y-29.96
X520.84Y-32.5
X815.16Y-303.42
X815.16Y-305.96
X815.16Y-308.5
T4
X513.0Y-25.5
X513.0Y-30.58
X513.0Y-310.42
X513.0Y-315.5
T5
X513.0Y-15.5
X513.0Y-325.5
X597.25Y-108.5
X597.25Y-232.5
X738.75Y-108.5
X739.0Y-232.5
X823.0Y-15.5
X823.0Y-325.5
T3
X663.257Y-209.5G85X663.257Y-207.5
G05
X666.957Y-205.5G85X668.957Y-205.5
G05
X666.957Y-211.5G85X668.957Y-211.5
G05
T0
M30
